<svg width="50" height="51" viewBox="0 0 50 51" fill="none" xmlns="http://www.w3.org/2000/svg">
<rect width="50" height="51" fill="#151515"/>
<path d="M17.104 34.336C15.92 34.336 14.872 34.088 13.96 33.592C13.064 33.08 12.36 32.368 11.848 31.456C11.352 30.528 11.104 29.44 11.104 28.192V27.904C11.104 26.656 11.352 25.576 11.848 24.664C12.344 23.736 13.04 23.024 13.936 22.528C14.832 22.016 15.872 21.76 17.056 21.76C18.224 21.76 19.24 22.024 20.104 22.552C20.968 23.064 21.64 23.784 22.12 24.712C22.6 25.624 22.84 26.688 22.84 27.904V28.936H14.176C14.208 29.752 14.512 30.416 15.088 30.928C15.664 31.44 16.368 31.696 17.2 31.696C18.048 31.696 18.672 31.512 19.072 31.144C19.472 30.776 19.776 30.368 19.984 29.92L22.456 31.216C22.232 31.632 21.904 32.088 21.472 32.584C21.056 33.064 20.496 33.48 19.792 33.832C19.088 34.168 18.192 34.336 17.104 34.336ZM14.2 26.68H19.768C19.704 25.992 19.424 25.44 18.928 25.024C18.448 24.608 17.816 24.4 17.032 24.4C16.216 24.4 15.568 24.608 15.088 25.024C14.608 25.44 14.312 25.992 14.2 26.68ZM30.3316 34.336C29.3876 34.336 28.4996 34.104 27.6676 33.64C26.8516 33.16 26.1956 32.464 25.6996 31.552C25.2036 30.64 24.9556 29.536 24.9556 28.24V27.856C24.9556 26.56 25.2036 25.456 25.6996 24.544C26.1956 23.632 26.8516 22.944 27.6676 22.48C28.4836 22 29.3716 21.76 30.3316 21.76C31.0516 21.76 31.6516 21.848 32.1316 22.024C32.6276 22.184 33.0276 22.392 33.3316 22.648C33.6356 22.904 33.8676 23.176 34.0276 23.464H34.4596V17.2H37.4836V34H34.5076V32.56H34.0756C33.8036 33.008 33.3796 33.416 32.8036 33.784C32.2436 34.152 31.4196 34.336 30.3316 34.336ZM31.2436 31.696C32.1716 31.696 32.9476 31.4 33.5716 30.808C34.1956 30.2 34.5076 29.32 34.5076 28.168V27.928C34.5076 26.776 34.1956 25.904 33.5716 25.312C32.9636 24.704 32.1876 24.4 31.2436 24.4C30.3156 24.4 29.5396 24.704 28.9156 25.312C28.2916 25.904 27.9796 26.776 27.9796 27.928V28.168C27.9796 29.32 28.2916 30.2 28.9156 30.808C29.5396 31.4 30.3156 31.696 31.2436 31.696Z" fill="white"/>
</svg>
